# xmcd CD database file
#
# Track frame offsets:
#	150
#	20199
#	33983
#	47289
#	60150
#	75054
#	90621
#	105251
#	122302
#	138038
#	156610
#	173852
#	190117
#	202602
#	222649
#	238018
#	250948
#	267334
#	285211
#	301215
#
# Disc length: 4210 seconds
#
# Revision: 0
# Processed by: cddbd v1.5.2PL0 Copyright (c) Steve Scherf et al.
# Submitted via: CDex 1.51
#
DISCID=f5107014
DTITLE=Various Artist - 100 Country Hits Disc 4
DYEAR=2003
DGENRE=Country
TTITLE0=Just to Hear You Say That You Love Me
TTITLE1=Love Without End Amen
TTITLE2=Poewrful Thing
TTITLE3=I Love You
TTITLE4=This Kiss
TTITLE5=Forever and Ever Amen
TTITLE6=Love in the First Degree
TTITLE7=You Had Me From Hello
TTITLE8=For You I Will
TTITLE9=I'm Already There
TTITLE10=Baby, Now That I've Found You
TTITLE11=Now That I've Found You
TTITLE12=Blue
TTITLE13=How Do I Live
TTITLE14=Does My Ring Burn Your Finger
TTITLE15=She Drew a Broken Heart
TTITLE16=Long Time Gone
TTITLE17=Lesson In Leaving
TTITLE18=For My Broken Heart
TTITLE19=All My Ex's Live in Texas
EXTD=YEAR: 2003
EXTT0=
EXTT1=
EXTT2=
EXTT3=
EXTT4=
EXTT5=
EXTT6=
EXTT7=
EXTT8=
EXTT9=
EXTT10=
EXTT11=
EXTT12=
EXTT13=
EXTT14=
EXTT15=
EXTT16=
EXTT17=
EXTT18=
EXTT19=
PLAYORDER=
